<?xml version="1.0" encoding="UTF-8"?>
<svg version="1.1" xmlns="http://www.w3.org/2000/svg" width="1290" height="331">
<path d="M0 0 C111.54 0 223.08 0 338 0 C338 97.68 338 195.36 338 296 C226.46 296 114.92 296 0 296 C0 198.32 0 100.64 0 0 Z M17 16 C17 29.2 17 42.4 17 56 C18.74087626 57.74087626 21.13034166 57.12758322 23.49780273 57.12939453 C25.25984291 57.13412277 25.25984291 57.13412277 27.05747986 57.13894653 C28.97615623 57.13591019 28.97615623 57.13591019 30.93359375 57.1328125 C32.88870628 57.13424759 32.88870628 57.13424759 34.88331604 57.13571167 C37.64658793 57.13718851 40.40982756 57.1350349 43.1730957 57.13037109 C46.71862837 57.12467938 50.26408526 57.12794934 53.80961514 57.13394356 C57.18428078 57.13842292 60.55892595 57.13528775 63.93359375 57.1328125 C65.84923378 57.13584885 65.84923378 57.13584885 67.80357361 57.13894653 C68.98141922 57.13579437 70.15926483 57.13264221 71.37280273 57.12939453 C72.41347397 57.12859894 73.4541452 57.12780334 74.52635193 57.12698364 C77.00295268 57.16551151 77.00295268 57.16551151 79 56 C79 129.92 79 203.84 79 280 C158.86 280 238.72 280 321 280 C321 192.88 321 105.76 321 16 C220.68 16 120.36 16 17 16 Z " fill="#F69320" transform="translate(7,8)"/>
<path d="M0 0 C1.04455829 0.00129972 1.04455829 0.00129972 2.11021876 0.0026257 C2.84510736 -0.00034542 3.57999596 -0.00331654 4.33715391 -0.0063777 C6.81887285 -0.01510276 9.30054377 -0.0165762 11.78227687 -0.01806521 C13.55441334 -0.02269109 15.32654882 -0.02771544 17.09868312 -0.03311038 C21.92992083 -0.04626782 26.76114461 -0.05268707 31.59239745 -0.05712104 C34.6128738 -0.06004938 37.63334632 -0.06415397 40.65382075 -0.06862521 C50.10931618 -0.08231553 59.56480289 -0.09197186 69.02030754 -0.0958271 C79.92338001 -0.10029691 90.82632642 -0.1177881 101.72936058 -0.1468277 C110.16009001 -0.16849911 118.59078415 -0.17853447 127.02154112 -0.17986822 C132.05388851 -0.18091333 137.08611765 -0.18675695 142.11843562 -0.20468783 C146.86263607 -0.22126058 151.60663065 -0.22327966 156.35084987 -0.21454883 C158.0837326 -0.21378307 159.8166268 -0.21805965 161.54948115 -0.22800708 C175.76484265 -0.30475961 189.06871486 0.11851997 200.16801906 10.1430676 C208.85541965 18.84717473 211.59473794 29.34076468 211.71013331 41.39849973 C211.70203639 42.64717832 211.69393947 43.8958569 211.68559718 45.18237424 C211.69103265 46.54559692 211.69816323 47.90881371 211.70683742 49.27201962 C211.72490318 52.9373696 211.71807411 56.60226374 211.70532107 60.26762056 C211.69510762 64.12483153 211.7046095 67.98200663 211.71086574 71.83921933 C211.71811721 78.31239866 211.70861962 84.78539469 211.68950343 91.25854611 C211.66773017 98.7170558 211.67479924 106.17512809 211.69680905 113.63362724 C211.71502374 120.06629743 211.71749216 126.49883678 211.70705438 132.93152446 C211.70085379 136.7608861 211.69988829 140.59004285 211.71320033 144.41939092 C211.7248476 148.02053376 211.71657379 151.62111837 211.6936233 155.22220159 C211.68590573 157.15584817 211.69761524 159.08954257 211.71013331 161.02316403 C211.59775261 172.73779841 208.87453404 181.45281726 200.64848781 189.92041135 C185.60249407 203.40256952 165.51114378 204.45930762 146.28618312 204.38598752 C144.63073599 204.38706296 142.97528923 204.38900551 141.31984401 204.39174008 C136.86610529 204.39654529 132.41246832 204.38899069 127.9587419 204.37878704 C123.28808481 204.36994981 118.61743037 204.37176498 113.94676661 204.3721478 C106.11945859 204.37121467 98.29218962 204.36257234 90.46489406 204.34887815 C81.40727911 204.33309038 72.34970668 204.32788249 63.29207897 204.3286137 C53.64027893 204.32928767 43.9884953 204.32236244 34.3367002 204.3131671 C31.55423809 204.31103297 28.77177861 204.31032558 25.98931575 204.30992818 C21.63244631 204.30892755 17.27561287 204.30285407 12.91875529 204.29276204 C11.31628459 204.28983006 9.71380975 204.28861307 8.11133647 204.28918958 C5.93376033 204.28967677 3.75628657 204.28405977 1.57872462 204.27678037 C-0.25290038 204.2742666 -0.25290038 204.2742666 -2.12152791 204.27170205 C-4.83198094 204.1430676 -4.83198094 204.1430676 -5.83198094 203.1430676 C-5.93199103 200.54034669 -5.96638702 197.96409538 -5.95896459 195.36084104 C-5.96052458 194.5358146 -5.96208457 193.71078816 -5.96369183 192.86076093 C-5.96770533 190.07463706 -5.96451084 187.28856694 -5.96137547 184.5024426 C-5.96272936 182.51379481 -5.96450922 180.52514727 -5.96668553 178.53650022 C-5.97126138 173.11930346 -5.96946969 167.70212566 -5.96630645 162.28492856 C-5.96378362 156.6292426 -5.96612017 150.97355831 -5.96769261 145.31787229 C-5.96951454 135.81819483 -5.96710741 126.31852513 -5.96235204 116.81884885 C-5.95690938 105.81880056 -5.95867202 94.8187708 -5.96417844 83.81872296 C-5.96870893 74.39286126 -5.96936044 64.96700515 -5.96673977 55.5411427 C-5.96517664 49.90336165 -5.96498422 44.26558931 -5.96827626 38.62780881 C-5.97115404 33.32885483 -5.96918101 28.02992486 -5.96338201 22.73097348 C-5.9620539 20.78019874 -5.96244936 18.829422 -5.96464467 16.87864804 C-5.96735422 14.22750232 -5.96397746 11.57643482 -5.95896459 8.92529416 C-5.96119531 8.14291757 -5.96342603 7.36054097 -5.96572435 6.554456 C-5.94161499 0.03634451 -5.94161499 0.03634451 0 0 Z M52.16801906 47.1430676 C52.16801906 84.1030676 52.16801906 121.0630676 52.16801906 159.1430676 C85.82801906 159.1430676 119.48801906 159.1430676 154.16801906 159.1430676 C154.16801906 122.1830676 154.16801906 85.2230676 154.16801906 47.1430676 C120.50801906 47.1430676 86.84801906 47.1430676 52.16801906 47.1430676 Z " fill="#262223" transform="translate(836.8319809436798,21.856932401657104)"/>
<path d="M0 0 C1.19979492 -0.00571014 2.39958984 -0.01142029 3.63574219 -0.01730347 C4.94901489 -0.01842133 6.2622876 -0.01953918 7.61535645 -0.02069092 C9.01517873 -0.02532143 10.41499976 -0.03034641 11.81481934 -0.03573608 C15.61691936 -0.0488453 19.41900174 -0.05530292 23.22112083 -0.05974674 C25.60054637 -0.0626817 27.97996713 -0.06678745 30.35939026 -0.07125092 C37.81528307 -0.08492602 45.2711649 -0.09459089 52.72706938 -0.09845281 C61.31185569 -0.10292456 69.89648206 -0.1204312 78.48121977 -0.1494534 C85.12941925 -0.17114198 91.77757398 -0.18116101 98.42580843 -0.18249393 C102.39000891 -0.18353744 106.35405906 -0.189347 110.31822205 -0.20731354 C114.05456315 -0.22391732 117.79064297 -0.22589081 121.52700806 -0.21717453 C123.53332435 -0.21604942 125.53963245 -0.22967397 127.54589844 -0.243927 C143.28282502 -0.17222815 158.14540981 3.9777344 169.75793457 15.07794189 C190.96096817 38.01892907 180.13293457 76.21201485 180.13293457 103.14044189 C127.66293457 103.14044189 75.19293457 103.14044189 21.13293457 103.14044189 C21.13293457 109.41044189 21.13293457 115.68044189 21.13293457 122.14044189 C68.32293457 122.14044189 115.51293457 122.14044189 164.13293457 122.14044189 C164.13293457 136.66044189 164.13293457 151.18044189 164.13293457 166.14044189 C160.51795042 167.04418793 157.82742632 167.27060567 154.14093018 167.28088379 C152.29942383 167.28944901 152.29942383 167.28944901 150.42071533 167.29818726 C149.06274424 167.29943259 147.70477304 167.30055769 146.34680176 167.30157471 C144.91406121 167.30620525 143.48132188 167.31123022 142.04858398 167.31661987 C138.15530919 167.32973334 134.26205163 167.33618814 130.3687582 167.34063053 C127.93033812 167.34356626 125.49192268 167.34767226 123.05350494 167.3521347 C115.40752267 167.36581413 107.7615511 167.37547553 100.11555743 167.3793366 C91.32253079 167.3838022 82.52966077 167.40127813 73.7366817 167.43033719 C66.92196682 167.4520666 60.10729561 167.46204703 53.29254651 167.46337771 C49.23208669 167.46441881 45.17177399 167.47017512 41.11135101 167.48819733 C37.27978959 167.50487114 33.44848271 167.50674171 29.61689758 167.49805832 C28.22390808 167.49729782 26.83090381 167.50149714 25.43795013 167.51151657 C7.89725327 167.63010055 -10.26094177 165.13028737 -23.86706543 153.14044189 C-24.49483887 152.59387939 -25.1226123 152.04731689 -25.76940918 151.48419189 C-32.6274187 145.10464816 -36.2573623 137.29784505 -37.0568943 127.91201019 C-37.13203306 125.47615936 -37.14882607 123.04717062 -37.14172363 120.61016846 C-37.14939003 119.23281525 -37.14939003 119.23281525 -37.1572113 117.82763672 C-37.17103533 114.81204588 -37.17015557 111.79668553 -37.16784668 108.78106689 C-37.1717383 106.66890377 -37.17607393 104.55674143 -37.18083191 102.44458008 C-37.18827925 98.02318788 -37.18801416 93.60187554 -37.18273926 89.18048096 C-37.17695474 83.54087875 -37.19385845 77.90160605 -37.21708393 72.26205826 C-37.23188624 67.90033079 -37.23268401 63.53868143 -37.2295742 59.17693329 C-37.23008442 57.09911193 -37.23526527 55.02128585 -37.24538612 52.94348907 C-37.37446254 22.73306506 -37.37446254 22.73306506 -27.15222168 11.20684814 C-19.70508009 4.12521044 -10.24387022 0.02922608 0 0 Z M21.13293457 46.14044189 C21.13293457 50.43044189 21.13293457 54.72044189 21.13293457 59.14044189 C54.79293457 59.14044189 88.45293457 59.14044189 123.13293457 59.14044189 C123.13293457 54.85044189 123.13293457 50.56044189 123.13293457 46.14044189 C89.47293457 46.14044189 55.81293457 46.14044189 21.13293457 46.14044189 Z " fill="#242021" transform="translate(634.8670654296875,58.85955810546875)"/>
<path d="M0 0 C1.41100733 -0.00351148 2.82201066 -0.00918155 4.23300171 -0.01681519 C8.02450839 -0.03092451 11.81527767 -0.01414072 15.60671353 0.00946999 C19.59823234 0.02975798 23.58972582 0.02369026 27.58128357 0.0213623 C34.27973406 0.02141568 40.97790063 0.04105455 47.67626953 0.07324219 C55.39204988 0.11014136 63.10745907 0.11891347 70.82331616 0.11194468 C78.28403965 0.10561382 85.74463753 0.11644057 93.20533562 0.13591003 C96.36331935 0.14402958 99.52123838 0.14680373 102.67923164 0.1452179 C106.40508871 0.14433128 110.13059962 0.158761 113.8563652 0.18444443 C115.85539328 0.19488372 117.85448069 0.19096525 119.85353088 0.18643188 C136.19657237 0.33875249 150.34374657 4.85772845 162.27905273 16.33398438 C182.59186068 38.14038114 172.40405273 81.58878667 172.40405273 103.61523438 C119.93405273 103.61523438 67.46405273 103.61523438 13.40405273 103.61523438 C13.40405273 109.88523437 13.40405273 116.15523438 13.40405273 122.61523438 C60.26405273 122.61523438 107.12405273 122.61523438 155.40405273 122.61523438 C155.40405273 137.46523437 155.40405273 152.31523437 155.40405273 167.61523438 C136.08827024 167.6604867 116.77253107 167.69728476 97.45670891 167.71885872 C88.48682626 167.72914482 79.51697904 167.74315381 70.54711914 167.76611328 C62.72349081 167.78612918 54.89988816 167.79897016 47.07623494 167.80341136 C42.93867825 167.80600494 38.80119497 167.81204454 34.66366196 167.82669449 C30.75833994 167.8404084 26.85312061 167.84442954 22.94777679 167.84144974 C21.52492589 167.84199379 20.10207105 167.84588816 18.67924118 167.85364532 C-1.05618421 167.95583847 -19.67007875 165.10489528 -34.91625977 151.55273438 C-46.24371569 139.84908987 -45.17808354 125.85305641 -45.09204102 110.58007812 C-45.09219622 108.33289035 -45.09368866 106.08570232 -45.09645081 103.83851624 C-45.09783044 99.14409455 -45.08534852 94.44998 -45.0625 89.75561523 C-45.0341007 83.75827305 -45.03686322 77.76143998 -45.04959011 71.76406002 C-45.05656621 67.12874554 -45.04873619 62.49354738 -45.03633308 57.85824776 C-45.03183852 55.64760345 -45.03146421 53.43694657 -45.03539848 51.22630119 C-45.03833009 48.13034606 -45.02171114 45.03507707 -45 41.93920898 C-45.00450165 41.03866791 -45.0090033 40.13812683 -45.01364136 39.21029663 C-44.87712371 27.4105775 -41.03597591 17.69772581 -32.59594727 9.42773438 C-22.89113765 1.42176108 -12.23008633 -0.12571875 0 0 Z M13.40405273 46.61523438 C13.40405273 50.90523437 13.40405273 55.19523437 13.40405273 59.61523438 C46.73405273 59.61523438 80.06405273 59.61523438 114.40405273 59.61523438 C114.40405273 55.32523438 114.40405273 51.03523438 114.40405273 46.61523438 C81.07405273 46.61523438 47.74405273 46.61523438 13.40405273 46.61523438 Z " fill="#242122" transform="translate(1108.595947265625,58.384765625)"/>
<path d="M0 0 C67 0 67 0 80 1 C80.495 1.495 80.495 1.495 81 2 C82.19625 2.12375 83.3925 2.2475 84.625 2.375 C88.83249837 2.85329466 92.13545065 4.2372231 96 6 C97.41292278 6.44944401 98.8299161 6.8862226 100.25 7.3125 C108.94344377 10.15117552 117.92020391 15.19631531 125 21 C125 21.66 125 22.32 125 23 C125.556875 23.2475 126.11375 23.495 126.6875 23.75 C131.68438793 26.4510205 135.00942583 29.99044819 138.3125 34.5625 C139.35857422 35.98755859 139.35857422 35.98755859 140.42578125 37.44140625 C142 40 142 40 142 43 C142.66 43 143.32 43 144 43 C152.27459044 61.27210931 152.27459044 61.27210931 154 69 C154.30550781 70.35351562 154.30550781 70.35351562 154.6171875 71.734375 C159.76803734 100.09932891 155.13547858 125.73516461 142 151 C141.34 151 140.68 151 140 151 C139.01 153.97 139.01 153.97 138 157 C137.34 157 136.68 157 136 157 C136 157.66 136 158.32 136 159 C135.34 159 134.68 159 134 159 C134 159.66 134 160.32 134 161 C133.34 161 132.68 161 132 161 C132 161.66 132 162.32 132 163 C131.34 163 130.68 163 130 163 C129.34 164.32 128.68 165.64 128 167 C127.34 167 126.68 167 126 167 C126 167.66 126 168.32 126 169 C124.35 169.66 122.7 170.32 121 171 C121 171.66 121 172.32 121 173 C120.01 173 119.02 173 118 173 C118 173.66 118 174.32 118 175 C117.01 175 116.02 175 115 175 C115 175.66 115 176.32 115 177 C111.91190305 178.76462683 110.76687864 179 107 179 C107 179.66 107 180.32 107 181 C72.39780723 195.98896829 39.01558987 191 0 191 C0 127.97 0 64.94 0 0 Z " fill="#F6931E" transform="translate(138,65)"/>
<path d="M0 0 C0.83684987 0.00223072 1.67369974 0.00446144 2.5359087 0.00675976 C3.41810487 0.00519977 4.30030104 0.00363978 5.20923042 0.00203252 C8.18882663 -0.00198142 11.16837259 0.00121368 14.14796925 0.00434887 C16.27454629 0.00299501 18.40112311 0.00121516 20.52769947 -0.00096118 C26.32091689 -0.00553726 32.11411658 -0.00374525 37.90733433 -0.0005821 C43.95540129 0.00194061 50.00346668 -0.00039578 56.0515337 -0.00196826 C66.21030927 -0.00379022 76.36907759 -0.00138296 86.52785206 0.00337231 C98.29134198 0.00881498 110.05481456 0.00705234 121.81830406 0.00154591 C131.89808806 -0.00298448 141.97786683 -0.00363614 152.05765152 -0.00101542 C158.08667186 0.00054776 164.11568404 0.00073998 170.14470387 -0.00255191 C175.81136484 -0.00542955 181.47800337 -0.00345693 187.1446619 0.00234234 C189.23089148 0.00367052 191.31712294 0.00327485 193.40335178 0.00107968 C196.23841626 -0.00162957 199.07340756 0.00174652 201.90846729 0.00675976 C202.74531716 0.00452904 203.58216703 0.00229832 204.44437599 0 C210.10803817 0.01959358 210.10803817 0.01959358 211.222188 1.13374341 C211.31514615 2.57664127 211.33965312 4.02404125 211.33571339 5.46992505 C211.33559254 6.40372998 211.33547169 7.33753491 211.33534718 8.29963696 C211.33023121 9.28774365 211.32511524 10.27585034 211.31984425 11.29389966 C211.31883717 12.19716992 211.31783009 13.10044018 211.31679249 14.03108227 C211.31154311 17.41948215 211.29758198 20.80786399 211.284688 24.19624341 C211.264063 31.76561841 211.243438 39.33499341 211.222188 47.13374341 C184.492188 47.13374341 157.762188 47.13374341 130.222188 47.13374341 C130.23378956 58.38339184 130.24539112 69.63304028 130.25734425 81.22358716 C130.26245064 88.32840509 130.26730563 95.43322171 130.27101612 102.53804028 C130.27695948 113.82800256 130.28396219 125.1179574 130.29762745 136.40791333 C130.3075732 144.62878024 130.31404116 152.84964114 130.31627649 161.0705139 C130.31758378 165.42616663 130.32067081 169.78180215 130.32791805 174.13744938 C130.33467655 178.23230955 130.33680531 182.32714533 130.33529568 186.42201054 C130.33557208 187.92933293 130.33757822 189.43665608 130.34139347 190.94397366 C130.34632799 192.9930184 130.34458619 195.04207605 130.34244251 197.09112561 C130.3438252 198.81533938 130.3438252 198.81533938 130.34523582 200.57438576 C130.222188 203.13374341 130.222188 203.13374341 129.222188 204.13374341 C127.47836264 204.23262133 125.73053256 204.26173373 123.98390675 204.26313794 C122.86604786 204.2662901 121.74818897 204.26944226 120.59645557 204.27268994 C119.37982227 204.27066571 118.16318897 204.26864148 116.909688 204.26655591 C115.6704961 204.26751263 114.43130421 204.26846936 113.15456104 204.26945508 C110.52830519 204.27013714 107.90214166 204.26877878 105.27589893 204.2641145 C101.90290086 204.25841721 98.52998234 204.26169643 95.15698719 204.26768696 C91.94955123 204.27216111 88.74212499 204.26903223 85.534688 204.26655591 C83.70973804 204.26959225 83.70973804 204.26959225 81.84792042 204.27268994 C80.17113209 204.2679617 80.17113209 204.2679617 78.46046925 204.26313794 C77.47087208 204.26234234 76.48127491 204.26154675 75.46168995 204.26072705 C73.222188 204.13374341 73.222188 204.13374341 72.222188 203.13374341 C72.12544234 201.12146295 72.10031792 199.10572972 72.10193348 197.09112561 C72.09987148 195.12015156 72.09987148 195.12015156 72.09776783 193.10935986 C72.10130745 191.63954152 72.10494227 190.16972341 72.10866261 188.69990551 C72.10894447 187.16283176 72.10878676 185.62575788 72.1082201 184.0886842 C72.10793208 179.90291481 72.11382948 175.71717382 72.12079406 171.53141105 C72.12702691 167.16184185 72.12763134 162.79227206 72.12881947 158.42269909 C72.13193299 150.14247293 72.14014665 141.8622599 72.15016896 133.58203954 C72.16341451 122.39708531 72.16882983 111.21212752 72.17467117 100.02716744 C72.18408653 82.39601625 72.2040053 64.76489278 72.222188 47.13374341 C46.152188 47.13374341 20.082188 47.13374341 -6.777812 47.13374341 C-6.798437 39.56436841 -6.819062 31.99499341 -6.840312 24.19624341 C-6.84941601 21.80382397 -6.85852001 19.41140454 -6.86789989 16.94648755 C-6.87081893 15.06229215 -6.87336751 13.17809614 -6.87546825 11.29389966 C-6.88058422 10.30579297 -6.88570019 9.31768628 -6.89097118 8.29963696 C-6.89109203 7.36583203 -6.89121288 6.4320271 -6.89133739 5.46992505 C-6.89355801 4.6549606 -6.89577862 3.83999615 -6.89806652 3.00033581 C-6.63084444 -1.14748927 -3.41383482 0.01181025 0 0 Z " fill="#272324" transform="translate(371.77781200408936,21.866256594657898)"/>
<path d="M0 0 C2.04832768 0.02054344 4.0967098 0.03618874 6.14511108 0.04716492 C11.50921643 0.08895548 16.86998989 0.19681329 22.23278809 0.31890869 C27.71593151 0.43189924 33.19961908 0.48177255 38.68359375 0.53710938 C49.42333058 0.65470903 60.16060588 0.84218102 70.8984375 1.07421875 C69.9583505 2.17531781 69.01763352 3.27587902 68.07666016 4.3762207 C67.55286774 4.98915482 67.02907532 5.60208893 66.4894104 6.2335968 C64.13525793 8.95715338 61.71160844 11.61347941 59.2734375 14.26171875 C58.809375 14.76896484 58.3453125 15.27621094 57.8671875 15.79882812 C56.55197544 17.23107177 55.22549528 18.65294388 53.8984375 20.07421875 C53.09808075 21.13585236 53.09808075 21.13585236 52.28155518 22.21893311 C48.7963972 24.93217032 45.41459744 24.60189578 41.18261719 24.52832031 C40.30421173 24.52890442 39.42580627 24.52948853 38.52078247 24.53009033 C35.62022244 24.5273058 32.72069278 24.49619645 29.8203125 24.46484375 C27.80821291 24.45738267 25.79610604 24.45168911 23.78399658 24.44769287 C18.49019277 24.43242611 13.19682849 24.39313508 7.90319824 24.34887695 C2.50063015 24.30794687 -2.90200902 24.28968668 -8.3046875 24.26953125 C-18.90383886 24.22664203 -29.50266412 24.15837788 -40.1015625 24.07421875 C-38.27583838 20.29842232 -36.11424722 17.58935631 -33.24569702 14.53681946 C-31.03323979 12.10829798 -31.03323979 12.10829798 -29.26528931 9.27238464 C-21.43233021 -1.60230035 -12.39818873 -0.36627397 0 0 Z " fill="#2F2B2C" transform="translate(1170.1015625,21.92578125)"/>
<path d="M0 0 C0.84948212 0.0143811 1.69896423 0.02876221 2.57418823 0.0435791 C3.92083809 0.04270294 3.92083809 0.04270294 5.29469299 0.04180908 C8.26560983 0.04459844 11.2355265 0.07573066 14.20626831 0.10705566 C16.26463777 0.11451502 18.32301433 0.12020939 20.38139343 0.12420654 C25.80179414 0.13948684 31.22176682 0.1787895 36.64199829 0.22302246 C42.17182627 0.26392341 47.70172333 0.2822065 53.23165894 0.30236816 C64.08406064 0.34528126 74.93614452 0.41356172 85.78829956 0.49768066 C84.83978269 1.77954171 83.8888806 3.05963804 82.9369812 4.33898926 C82.14306725 5.40855362 82.14306725 5.40855362 81.33311462 6.49972534 C79.46909192 8.91052141 77.42811163 11.01886198 75.22579956 13.12268066 C72.69984952 15.54507126 70.66757565 17.67733507 68.70549011 20.59719849 C67.14490199 22.46585957 66.23917196 23.36887751 63.88205528 24.04224777 C61.52399454 24.23635607 59.23254871 24.24009236 56.86715698 24.17883301 C55.97885193 24.17970917 55.09054687 24.18058533 54.17532349 24.18148804 C51.24723523 24.17731699 48.3214549 24.13068853 45.39376831 24.08361816 C43.36068473 24.07242429 41.32758494 24.06388501 39.29447937 24.05789185 C33.94947439 24.03500871 28.60545137 23.97608923 23.26083374 23.90966797 C17.80462935 23.84823473 12.34826592 23.82087456 6.89181519 23.79064941 C-3.80978757 23.72634606 -14.51066228 23.62397223 -25.21170044 23.49768066 C-23.78360847 20.52736835 -22.34379825 18.35364401 -20.05935669 15.96643066 C-19.14186646 14.9977002 -19.14186646 14.9977002 -18.20584106 14.00939941 C-17.56839966 13.34553223 -16.93095825 12.68166504 -16.27420044 11.99768066 C-15.01328652 10.67647889 -13.75411434 9.35361223 -12.49685669 8.02893066 C-11.93877319 7.44691895 -11.3806897 6.86490723 -10.80569458 6.26525879 C-9.1300919 4.56319985 -9.1300919 4.56319985 -8.16119385 2.41558838 C-5.58819411 -0.11572361 -3.50309801 0.02475159 0 0 Z " fill="#2F2B2C" transform="translate(688.2117004394531,22.5023193359375)"/>
<path d="M0 0 C0.88360921 0.00037972 1.76721842 0.00075944 2.67760366 0.00115067 C3.69326282 -0.00084038 4.70892198 -0.00283143 5.7553587 -0.00488281 C6.88471181 -0.00196997 8.01406492 0.00094287 9.17764086 0.00394398 C10.9613931 0.00266234 10.9613931 0.00266234 12.78118074 0.00135481 C16.09680114 -0.00001338 19.41236324 0.00313412 22.72797662 0.00813287 C26.29786289 0.01243405 29.86774723 0.01099119 33.43763536 0.0102306 C39.62764282 0.00970515 45.81763978 0.01285412 52.00764459 0.01846844 C60.95745435 0.02658064 69.90725901 0.02919837 78.85707205 0.03045643 C93.37603549 0.03264739 107.89499333 0.03930867 122.41395372 0.04875904 C136.52137531 0.05793202 150.62879538 0.06501341 164.73621935 0.06926686 C166.03964883 0.06966094 166.03964883 0.06966094 167.36941022 0.07006299 C171.72850432 0.07136798 176.08759842 0.0726317 180.44669253 0.07387489 C216.63443264 0.08424888 252.82216638 0.10186839 289.00990099 0.1241985 C289.00990099 0.7841985 289.00990099 1.4441985 289.00990099 2.1241985 C291.31990099 2.1241985 293.62990099 2.1241985 296.00990099 2.1241985 C296.00990099 89.9041985 296.00990099 177.6841985 296.00990099 268.1241985 C295.67990099 268.1241985 295.34990099 268.1241985 295.00990099 268.1241985 C295.00990099 181.0041985 295.00990099 93.8841985 295.00990099 4.1241985 C194.68990099 4.1241985 94.36990099 4.1241985 -8.99009901 4.1241985 C-8.66009901 17.3241985 -8.33009901 30.5241985 -7.99009901 44.1241985 C12.13990099 44.1241985 32.26990099 44.1241985 53.00990099 44.1241985 C53.00990099 44.7841985 53.00990099 45.4441985 53.00990099 46.1241985 C32.21990099 46.1241985 11.42990099 46.1241985 -9.99009901 46.1241985 C-9.99009901 31.6041985 -9.99009901 17.0841985 -9.99009901 2.1241985 C-6.52509901 1.6291985 -6.52509901 1.6291985 -2.99009901 1.1241985 C-1.99009901 0.1241985 -1.99009901 0.1241985 0 0 Z " fill="#F3B561" transform="translate(32.990099012851715,19.875801503658295)"/>
<path d="M0 0 C7.1775 -0.12375 7.1775 -0.12375 14.5 -0.25 C15.99337891 -0.28641602 17.48675781 -0.32283203 19.02539062 -0.36035156 C26.49177746 -0.42260492 31.72796856 -0.20467039 38 4 C42.07021217 8.3328065 42.33904025 12.77806459 42.2890625 18.4921875 C41.72236607 23.40866191 38.56377255 26.79260471 35 30 C35.62390625 30.61617188 36.2478125 31.23234375 36.890625 31.8671875 C39.77016211 36.14383335 40.1347309 40.07979336 40.75 45.125 C40.87503906 46.03121094 41.00007813 46.93742187 41.12890625 47.87109375 C41.5885124 51.28026021 42 54.55648724 42 58 C40.02 58 38.04 58 36 58 C34.06434407 51.78170533 33.27862575 45.70757038 32.5625 39.23046875 C32.30557693 35.92202595 32.30557693 35.92202595 30 34 C24.94993389 32.8268308 19.78655552 32.6888592 14.625 32.4375 C11.77875 32.293125 8.9325 32.14875 6 32 C6 40.58 6 49.16 6 58 C4.02 58 2.04 58 0 58 C0 38.86 0 19.72 0 0 Z M6 5 C6 12.26 6 19.52 6 27 C10.7334375 27.0928125 10.7334375 27.0928125 15.5625 27.1875 C16.5429126 27.21481201 17.5233252 27.24212402 18.53344727 27.27026367 C24.15454919 27.32326605 28.042853 26.70330618 33 24 C35.23529288 21.62500132 35.93889521 20.06742425 36.125 16.81640625 C35.90938825 12.71304507 35.54996009 10.61106676 32.75 7.5 C27.15459178 4.44795915 21.39718625 4.87776606 15.1875 4.9375 C12.155625 4.958125 9.12375 4.97875 6 5 Z " fill="#3E3C3D" transform="translate(377,246)"/>
<path d="M0 0 C1.65 0 3.3 0 5 0 C5 19.14 5 38.28 5 58 C3.35 58 1.7 58 0 58 C-0.495 56.02 -0.495 56.02 -1 54 C-1.763125 54.639375 -2.52625 55.27875 -3.3125 55.9375 C-8.42477455 59.86087349 -13.80061234 59.48029689 -20 59 C-25.19973734 57.26675422 -27.86183594 54.44573242 -31 50 C-34.14266534 42.19827836 -34.5465355 32.81347983 -31.375 24.9375 C-28.78851915 19.99465225 -25.36363507 16.78787836 -20 15 C-12.7825306 14.29894007 -7.93227702 14.74423605 -2 19 C-1.67 19.33 -1.34 19.66 -1 20 C-0.67 13.4 -0.34 6.8 0 0 Z M-24.75 25 C-27.18186827 28.89098922 -27.19258413 32.31970796 -27.25 36.8125 C-27.27578125 38.01519531 -27.3015625 39.21789062 -27.328125 40.45703125 C-26.84527023 45.67071314 -25.24320411 48.87519628 -21.375 52.375 C-17.04567248 54.45949103 -13.71925093 54.81191414 -9 54 C-4.94975901 52.19989289 -2.8752063 50.37778664 -1.125 46.375 C1.01278477 39.52899879 0.91984301 32.3016317 -1.96875 25.6953125 C-3.83583557 22.62593697 -5.74752986 21.44554228 -9 20 C-15.5271755 18.99847572 -20.27158688 19.88181358 -24.75 25 Z " fill="#2E2C2D" transform="translate(655,246)"/>
<path d="M0 0 C5.57365831 3.9811845 8.32995716 8.16432345 9.625 14.875 C9.625 17.185 9.625 19.495 9.625 21.875 C-0.605 21.875 -10.835 21.875 -21.375 21.875 C-19.88190455 30.1605103 -19.88190455 30.1605103 -15.375 35.875 C-11.65575827 37.73462086 -7.42479769 37.44898707 -3.375 36.875 C0.00573474 34.33944894 2.03264294 31.7835128 3.625 27.875 C5.275 27.875 6.925 27.875 8.625 27.875 C8.37831325 32.06867478 8.07196258 34.3287124 5.375 37.625 C-1.21387954 43.01590144 -5.98194735 43.6960595 -14.375 42.875 C-19.58556505 41.16972417 -22.27335481 38.35515417 -25.375 33.875 C-28.60126412 26.19341877 -28.54569416 17.24214619 -25.75 9.4375 C-23.71802499 4.93967632 -21.4782512 2.58139973 -17.375 -0.125 C-11.73816637 -2.00394454 -5.61662826 -1.87220942 0 0 Z M-19.375 8.875 C-21.20288768 12.28151796 -21.375 13.91966048 -21.375 17.875 C-13.125 17.875 -4.875 17.875 3.625 17.875 C2.562638 10.43846602 2.34363669 9.70872539 -2.375 4.875 C-8.9575992 1.5837004 -14.74647624 3.79491295 -19.375 8.875 Z " fill="#353233" transform="translate(1192.375,262.125)"/>
<path d="M0 0 C5.35241509 3.82315364 7.9308373 7.44198996 9.36328125 13.75 C9.69451461 16.43941716 9.625 19.16526197 9.625 21.875 C-0.605 21.875 -10.835 21.875 -21.375 21.875 C-19.88190455 30.1605103 -19.88190455 30.1605103 -15.375 35.875 C-11.65575827 37.73462086 -7.42479769 37.44898707 -3.375 36.875 C0.00573474 34.33944894 2.03264294 31.7835128 3.625 27.875 C5.275 27.875 6.925 27.875 8.625 27.875 C8.625 31.77813457 8.50111052 33.87513396 5.8828125 36.86328125 C0.05524688 42.01843545 -3.90659268 43.18798956 -11.65234375 43.0859375 C-16.88840897 42.68027391 -19.52360094 40.74574904 -23.125 37.0625 C-28.01393965 30.13650216 -28.01837436 23.08807585 -27.375 14.875 C-26.18801742 9.15337302 -23.44761224 4.94761224 -19.375 0.875 C-13.23067916 -2.15069077 -6.43849345 -2.14616448 0 0 Z M-20.75 10.875 C-21.62356249 13.32116968 -21.62356249 13.32116968 -21.375 17.875 C-13.125 17.875 -4.875 17.875 3.625 17.875 C2.46669212 9.40378977 2.46669212 9.40378977 -0.9375 5.8125 C-9.03361147 1.24923717 -15.56519827 3.33347022 -20.75 10.875 Z " fill="#373535" transform="translate(732.375,262.125)"/>
<path d="M0 0 C4.22350263 2.98735552 6.26390938 6.21531876 8.5625 10.8125 C9.0575 16.2575 9.0575 16.2575 9.5625 21.8125 C-0.6675 21.8125 -10.8975 21.8125 -21.4375 21.8125 C-19.94440455 30.0980103 -19.94440455 30.0980103 -15.4375 35.8125 C-11.71825827 37.67212086 -7.48729769 37.38648707 -3.4375 36.8125 C-0.05676526 34.27694894 1.97014294 31.7210128 3.5625 27.8125 C5.2125 28.1425 6.8625 28.4725 8.5625 28.8125 C7.69354938 34.02620369 6.96407575 36.76877338 2.625 40 C-2.99135751 43.32396669 -8.05572661 43.30692721 -14.4375 42.8125 C-19.63723734 41.07925422 -22.29933594 38.25823242 -25.4375 33.8125 C-28.58016534 26.01077836 -28.9840355 16.62597983 -25.8125 8.75 C-20.58959701 -1.2311349 -10.27559982 -3.54975267 0 0 Z M-20.8125 10.8125 C-21.68606249 13.25866968 -21.68606249 13.25866968 -21.4375 17.8125 C-13.1875 17.8125 -4.9375 17.8125 3.5625 17.8125 C2.40419212 9.34128977 2.40419212 9.34128977 -1 5.75 C-9.09611147 1.18673717 -15.62769827 3.27097022 -20.8125 10.8125 Z " fill="#3A3738" transform="translate(959.4375,262.1875)"/>
<path d="M0 0 C5.24094777 2.73984471 8.03007342 6.81678275 9.86328125 12.31640625 C9.86328125 15.61640625 9.86328125 18.91640625 9.86328125 22.31640625 C-0.36671875 22.31640625 -10.59671875 22.31640625 -21.13671875 22.31640625 C-19.18683264 30.97690804 -19.18683264 30.97690804 -14.13671875 36.31640625 C-11.81075929 37.47938598 -10.34948644 37.48241316 -7.76171875 37.50390625 C-6.99085938 37.51808594 -6.22 37.53226562 -5.42578125 37.546875 C-2.82985305 37.28551022 -1.31577014 36.74612141 0.86328125 35.31640625 C2.1753813 33.619134 2.1753813 33.619134 3.11328125 31.69140625 C3.97953125 30.02078125 3.97953125 30.02078125 4.86328125 28.31640625 C6.51328125 28.64640625 8.16328125 28.97640625 9.86328125 29.31640625 C8.83654976 35.02047011 7.11142926 37.52200592 2.6171875 41.15234375 C-2.31974995 44.42897484 -8.47171654 43.92670433 -14.13671875 43.31640625 C-18.99892347 41.71133062 -22.16868352 38.9772201 -24.63671875 34.50390625 C-27.46749871 26.97200958 -27.87103495 16.05327736 -24.51171875 8.62890625 C-19.1208492 -0.04252804 -9.74335769 -3.11716197 0 0 Z M-18.13671875 8.31640625 C-19.53911103 11.35492285 -21.13671875 14.90860867 -21.13671875 18.31640625 C-12.88671875 18.31640625 -4.63671875 18.31640625 3.86328125 18.31640625 C3.86328125 12.12146333 3.51451275 10.90652584 -0.13671875 6.31640625 C-6.10788081 2.33563154 -13.02139661 3.3228775 -18.13671875 8.31640625 Z " fill="#2E2C2D" transform="translate(489.13671875,261.68359375)"/>
<path d="M0 0 C1.98 0 3.96 0 6 0 C6.33 11.22 6.66 22.44 7 34 C12.58670222 28.09785094 12.58670222 28.09785094 18.12695312 22.15234375 C23.84561487 16.27295806 23.84561487 16.27295806 27.37890625 15.4375 C29.59375 15.4375 29.59375 15.4375 33 16 C30.06759131 20.03206195 26.71069054 23.08881189 22.90234375 26.25390625 C20.97097161 28.02664413 19.54220055 29.88857287 18 32 C18.4846875 32.71655762 18.969375 33.43311523 19.46875 34.17138672 C21.2615047 36.82647366 23.05011422 39.48429001 24.8359375 42.14404297 C25.61032184 43.29554988 26.38635802 44.44594769 27.1640625 45.59521484 C28.28036178 47.2454583 29.39027855 48.90001355 30.5 50.5546875 C31.1703125 51.54968262 31.840625 52.54467773 32.53125 53.56982422 C34 56 34 56 34 58 C31.22802734 58.28710938 31.22802734 58.28710938 28 58 C26.03369141 56.07226562 26.03369141 56.07226562 24.3515625 53.40625 C23.73925781 52.45878906 23.12695312 51.51132812 22.49609375 50.53515625 C21.56990234 49.03275391 21.56990234 49.03275391 20.625 47.5 C19.98433594 46.49839844 19.34367187 45.49679687 18.68359375 44.46484375 C17.10308382 41.98792521 15.5433117 39.50020295 14 37 C9.984434 38.86511166 9.984434 38.86511166 7 42 C6.62325482 44.79251583 6.39808059 47.38779201 6.3125 50.1875 C6.27833984 50.93708984 6.24417969 51.68667969 6.20898438 52.45898438 C6.12665706 54.30546838 6.06164719 56.15270994 6 58 C4.33388095 58.042721 2.66617115 58.04063832 1 58 C0 57 0 57 -0.12025452 54.71580505 C-0.11803391 53.70542679 -0.11581329 52.69504852 -0.11352539 51.65405273 C-0.11344986 50.5129454 -0.11337433 49.37183807 -0.11329651 48.19615173 C-0.10813522 46.9545076 -0.10297394 45.71286346 -0.09765625 44.43359375 C-0.0962413 43.16983414 -0.09482635 41.90607452 -0.09336853 40.60401917 C-0.08870582 37.23875111 -0.0797148 33.8735501 -0.06866455 30.50830078 C-0.05844846 27.0765033 -0.05387049 23.64469891 -0.04882812 20.21289062 C-0.0377738 13.47524176 -0.0210171 6.73762475 0 0 Z " fill="#454444" transform="translate(1246,246)"/>
<path d="M0 0 C3.91075925 1.98968453 5.57689098 3.36533646 8 7 C8.96672451 11.32117434 9.12857936 15.47664807 9.1328125 19.89453125 C9.13410156 21.17908203 9.13539062 22.46363281 9.13671875 23.78710938 C9.13462402 24.44735107 9.1325293 25.10759277 9.13037109 25.7878418 C9.12496915 27.82413014 9.13035919 29.8602024 9.13671875 31.89648438 C9.13542969 33.17458984 9.13414063 34.45269531 9.1328125 35.76953125 C9.13168457 36.94104736 9.13055664 38.11256348 9.12939453 39.31958008 C9 42 9 42 8 43 C6.33382885 43.04063832 4.66611905 43.042721 3 43 C2.98018066 42.12263184 2.96036133 41.24526367 2.93994141 40.34130859 C2.861524 37.06467423 2.77482117 33.78847139 2.68261719 30.51220703 C2.64449762 29.09822937 2.60961596 27.68416035 2.578125 26.27001953 C2.53210142 24.2291616 2.47417333 22.1889234 2.4140625 20.1484375 C2.3826416 18.92302246 2.3512207 17.69760742 2.31884766 16.43505859 C1.99773921 12.97564375 1.34415787 10.19886881 0 7 C-3.4492432 5.2753784 -7.22131431 5.63389896 -11 6 C-13.86724066 7.22010241 -15.3945416 8.08068955 -17.10302734 10.67480469 C-18.31511333 13.81685884 -18.32853747 16.58914031 -18.4140625 19.953125 C-18.43342865 20.61334656 -18.4527948 21.27356812 -18.4727478 21.95379639 C-18.53229349 24.05240153 -18.57882722 26.15106228 -18.625 28.25 C-18.66320294 29.6771066 -18.70225602 31.10419072 -18.7421875 32.53125 C-18.8379733 36.02062691 -18.92209642 39.51017286 -19 43 C-20.98 43 -22.96 43 -25 43 C-25 29.14 -25 15.28 -25 1 C-23.02 1 -21.04 1 -19 1 C-18.67 1.99 -18.34 2.98 -18 4 C-17.071875 3.34 -16.14375 2.68 -15.1875 2 C-10.31962892 -0.77033314 -5.45701633 -0.83005821 0 0 Z " fill="#494748" transform="translate(1038,261)"/>
<path d="M0 0 C1.98 0 3.96 0 6 0 C6.35827881 0.93384521 6.71655762 1.86769043 7.08569336 2.82983398 C8.41178319 6.2841584 9.74136429 9.73712998 11.07202148 13.18969727 C11.64817578 14.68607317 12.2233741 16.18281751 12.79760742 17.67993164 C13.62169195 19.82795524 14.44917074 21.97464372 15.27734375 24.12109375 C15.53466782 24.79401962 15.79199188 25.4669455 16.05711365 26.16026306 C17.12532781 29.32029351 17.12532781 29.32029351 19 32 C22.96 21.44 26.92 10.88 31 0 C32.98 0 34.96 0 37 0 C35.02720999 6.83447729 32.80798995 13.53345737 30.34765625 20.20703125 C30.00625107 21.13545334 29.66484589 22.06387543 29.31309509 23.02043152 C28.59630013 24.96470524 27.87773795 26.90832829 27.1574707 28.85131836 C26.06014536 31.81886778 24.97632589 34.79114156 23.89257812 37.76367188 C23.19093106 39.66176421 22.48848491 41.55956138 21.78515625 43.45703125 C21.30527 44.78212456 21.30527 44.78212456 20.81568909 46.13398743 C16.91566724 56.54216638 16.91566724 56.54216638 12 59 C9.3276379 59.13415472 6.67749512 59.04318541 4 59 C3.67 57.35 3.34 55.7 3 54 C4.093125 53.9175 5.18625 53.835 6.3125 53.75 C9.91581321 53.33000986 9.91581321 53.33000986 11.8125 51.4375 C14.34582343 46.23752032 15.6795176 42.0946394 13.85009766 36.54345703 C13.22719019 34.93934765 12.58060583 33.34428678 11.9140625 31.7578125 C11.57829193 30.90822968 11.24252136 30.05864685 10.89657593 29.18331909 C9.82673164 26.48838075 8.72704869 23.80690871 7.625 21.125 C6.5367937 18.41937144 5.45476972 15.71135531 4.37484741 13.00241089 C3.70223646 11.32161568 3.0235536 9.64323526 2.33828735 7.96755981 C0 2.21391903 0 2.21391903 0 0 Z " fill="#3E3C3D" transform="translate(1088,262)"/>
<path d="M0 0 C3.3568459 1.14464887 6.05928807 2.68480709 8.17138672 5.63769531 C9.37870674 9.0796601 9.24520605 12.44626438 9.1953125 16.046875 C9.1924826 16.81807678 9.18965271 17.58927856 9.18673706 18.3838501 C9.17557013 20.83939332 9.15047229 23.2945676 9.125 25.75 C9.11496568 27.41796347 9.10584061 29.08593268 9.09765625 30.75390625 C9.07564225 34.83607897 9.04113667 38.917977 9 43 C7.33388095 43.042721 5.66617115 43.04063832 4 43 C2.0827717 41.0827717 2.84592322 37.581767 2.82421875 35.04296875 C2.80101433 33.60610524 2.77689674 32.16925624 2.75195312 30.73242188 C2.71686602 28.4610839 2.68751643 26.19027686 2.67407227 23.91870117 C2.65857534 21.73029723 2.61835162 19.54345824 2.57421875 17.35546875 C2.55963623 16.04215576 2.54505371 14.72884277 2.5300293 13.37573242 C1.92302074 9.50972259 1.09102528 8.31539492 -2 6 C-5.06135574 5.25519789 -7.90888467 5.43797903 -11 6 C-13.87029869 7.79393668 -15.49131638 8.98263276 -17 12 C-17.14301411 14.23828137 -17.22647393 16.48047961 -17.28125 18.72265625 C-17.29965942 19.38333603 -17.31806885 20.04401581 -17.33703613 20.72471619 C-17.41579828 23.55532493 -17.48359952 26.38617171 -17.55224609 29.21704102 C-17.6038644 31.28153648 -17.66114518 33.34582059 -17.71875 35.41015625 C-17.74904297 36.64902588 -17.77933594 37.88789551 -17.81054688 39.16430664 C-18 42 -18 42 -19 43 C-20.65 43 -22.3 43 -24 43 C-24 29.14 -24 15.28 -24 1 C-22.35 1 -20.7 1 -19 1 C-18.67 2.32 -18.34 3.64 -18 5 C-17.21625 4.360625 -16.4325 3.72125 -15.625 3.0625 C-10.68050506 -0.82246031 -6.13747946 -0.61712948 0 0 Z " fill="#403E3E" transform="translate(568,261)"/>
<path d="M0 0 C10.56 0 21.12 0 32 0 C32 5.62244556 32 5.62244556 29.5078125 8.53125 C28.70404175 9.4910376 28.70404175 9.4910376 27.8840332 10.47021484 C27.30355225 11.14004395 26.72307129 11.80987305 26.125 12.5 C24.93207873 13.91799767 23.74069262 15.33728813 22.55078125 16.7578125 C21.95346191 17.46583008 21.35614258 18.17384766 20.74072266 18.90332031 C18.17531338 21.9933252 15.73703695 25.17398931 13.3125 28.375 C9.2 33.8 9.2 33.8 7 36 C19.87 36.495 19.87 36.495 33 37 C33 38.65 33 40.3 33 42 C21.78 42 10.56 42 -1 42 C-1.33 40.68 -1.66 39.36 -2 38 C-0.52239536 35.70864208 0.93997339 33.75665728 2.6875 31.6875 C3.42504517 30.78294067 3.42504517 30.78294067 4.17749023 29.86010742 C5.22838189 28.57170929 6.28430672 27.2874033 7.34472656 26.00683594 C9.58115993 23.29540788 11.77639871 20.5520519 13.9699707 17.8059082 C15.01522087 16.49754279 16.0631518 15.19131362 17.11401367 13.88745117 C19.1862182 11.31156405 21.16487003 8.75269496 23 6 C15.74 5.67 8.48 5.34 1 5 C0.67 3.35 0.34 1.7 0 0 Z " fill="#424040" transform="translate(784,262)"/>
<path d="M0 0 C1.98 0 3.96 0 6 0 C10.68063212 10.86896787 14.8142523 21.93259931 19 33 C22.96 22.11 26.92 11.22 31 0 C32.98 0 34.96 0 37 0 C36.27124355 4.56758162 34.71566417 8.76474452 33.09375 13.07421875 C32.80898804 13.83926224 32.52422607 14.60430573 32.23083496 15.39253235 C31.6307479 17.00266113 31.02886449 18.61212142 30.42529297 20.22094727 C29.49973797 22.68819851 28.57947023 25.15737048 27.66015625 27.62695312 C27.07582608 29.19282228 26.49120091 30.75858138 25.90625 32.32421875 C25.63018921 33.06379318 25.35412842 33.80336761 25.06970215 34.56535339 C23.11763914 39.76472172 23.11763914 39.76472172 22 42 C20.02 42 18.04 42 16 42 C12.55946123 34.50931244 9.54031345 26.87233672 6.57128906 19.1862793 C5.74175547 17.04118038 4.90619915 14.89848948 4.0703125 12.75585938 C3.54130357 11.39076565 3.01264462 10.02553624 2.484375 8.66015625 C2.1094693 7.7008596 2.1094693 7.7008596 1.72698975 6.72218323 C0 2.22924811 0 2.22924811 0 0 Z " fill="#3E3B3C" transform="translate(855,262)"/>
<path d="M0 0 C0.99 0.33 1.98 0.66 3 1 C3 8.26 3 15.52 3 23 C11.91 22.67 20.82 22.34 30 22 C29 24 28 26 27 28 C19.08 28 11.16 28 3 28 C3 36.25 3 44.5 3 53 C1.35 53 -0.3 53 -2 53 C-2.05058332 45.7734678 -2.08568412 38.54698101 -2.10986328 31.3203125 C-2.11993983 28.86033421 -2.13360131 26.40036794 -2.15087891 23.94042969 C-2.17505461 20.41077715 -2.1864664 16.88128253 -2.1953125 13.3515625 C-2.20563507 12.24632233 -2.21595764 11.14108215 -2.22659302 10.00234985 C-2.22674408 8.98144257 -2.22689514 7.96053528 -2.22705078 6.90869141 C-2.231492 6.00712311 -2.23593323 5.10555481 -2.24050903 4.17666626 C-2 2 -2 2 0 0 Z " fill="#252324" transform="translate(380,250)"/>
<path d="M0 0 C-1.09983461 2.79957902 -2.01266555 4.00974273 -4.4375 5.875 C-8.3402117 9.11139507 -9.81614112 12.41376655 -10.3984375 17.4375 C-10.39070312 18.613125 -10.38296875 19.78875 -10.375 21 C-10.38273438 22.175625 -10.39046875 23.35125 -10.3984375 24.5625 C-9.85172436 29.2792408 -8.46049571 32.71132731 -4.875 35.875 C-0.85275986 37.44892005 2.73413906 37.58732868 7 37 C10.76398568 35.2880813 10.76398568 35.2880813 13 32 C13.66 32 14.32 32 15 32 C15.3125 34.75 15.3125 34.75 15 38 C10.88664248 42.11335752 7.37773201 43.15555632 1.6875 43.25 C-4.75982737 43.16505498 -8.18634779 41.85487157 -12.75 37.1875 C-17.79809117 30.03603751 -17.76060443 22.48073936 -17 14 C-15.38208176 7.56509791 -12.43354866 3.69943739 -7 0 C-3.86650268 -1.04449911 -3.01031744 -0.93423645 0 0 Z " fill="#3E3C3D" transform="translate(639,262)"/>
<path d="M0 0 C1.65 0 3.3 0 5 0 C5.33 1.32 5.66 2.64 6 4 C6.763125 3.34 7.52625 2.68 8.3125 2 C11 0 11 0 14 0 C12.87314334 3.38056999 11.25417808 5.26766293 9 8 C6.57833703 11.63249445 6.70892346 13.49208694 6.62109375 17.8203125 C6.60409927 18.47957733 6.5871048 19.13884216 6.56959534 19.81808472 C6.51653348 21.920293 6.47618633 24.02248185 6.4375 26.125 C6.39360079 28.23456102 6.34695591 30.34396783 6.29469299 32.45333862 C6.24812288 34.36214314 6.21064614 36.27116298 6.17358398 38.18017578 C6 41 6 41 5 42 C3.35 42 1.7 42 0 42 C0 28.14 0 14.28 0 0 Z " fill="#474445" transform="translate(544,262)"/>
<path d="M0 0 C0.33 0 0.66 0 1 0 C1.15855469 0.61488281 1.31710937 1.22976563 1.48046875 1.86328125 C2.93153567 6.95676298 2.93153567 6.95676298 6.125 11.0625 C10.74315944 12.56842156 15.52691044 12.91780106 20.13671875 11.20703125 C22.28997516 9.81215446 23.07729922 8.63663722 24.25 6.375 C25.11625 4.704375 25.11625 4.704375 26 3 C28.475 3.495 28.475 3.495 31 4 C29.97326851 9.70406386 28.24814801 12.20559967 23.75390625 15.8359375 C18.8273075 19.10570683 12.65433103 18.62984953 7 18 C2.30258026 16.27015654 -0.34727774 14.0402761 -3 9.8125 C-4 7 -4 7 -4 5 C-3.01 4.67 -2.02 4.34 -1 4 C-0.26676204 1.98491642 -0.26676204 1.98491642 0 0 Z " fill="#464545" transform="translate(468,287)"/>
<path d="M0 0 C4.888125 -0.04125 9.77625 -0.0825 14.8125 -0.125 C16.35139893 -0.14320801 17.89029785 -0.16141602 19.47583008 -0.18017578 C20.68650146 -0.1851709 21.89717285 -0.19016602 23.14453125 -0.1953125 C24.38565674 -0.20578613 25.62678223 -0.21625977 26.90551758 -0.22705078 C30 0 30 0 33 2 C32.34 3.32 31.68 4.64 31 6 C29.73555054 5.94670532 29.73555054 5.94670532 28.44555664 5.89233398 C25.32786813 5.76337221 22.21004037 5.63901659 19.09204102 5.51782227 C17.74072921 5.46434198 16.38948948 5.40900806 15.03833008 5.35180664 C13.09997011 5.27006429 11.16131296 5.19546677 9.22265625 5.12109375 C7.47094116 5.05039673 7.47094116 5.05039673 5.68383789 4.97827148 C3.08060916 4.6856045 3.08060916 4.6856045 2 6 C1.87727151 7.59513893 1.82218957 9.19554932 1.79467773 10.79516602 C1.77473251 11.81614883 1.75478729 12.83713165 1.73423767 13.88905334 C1.71752518 14.9994548 1.70081268 16.10985626 1.68359375 17.25390625 C1.66281265 18.38448959 1.64203156 19.51507294 1.62062073 20.67991638 C1.55500203 24.30737985 1.49618323 27.93491833 1.4375 31.5625 C1.39432649 34.01498186 1.3507126 36.467456 1.30664062 38.91992188 C1.19930816 44.94653427 1.0975651 50.97322201 1 57 C2.65 57 4.3 57 6 57 C6 57.33 6 57.66 6 58 C4.02 58 2.04 58 0 58 C0 38.86 0 19.72 0 0 Z " fill="#4E4C4D" transform="translate(377,246)"/>
<path d="M0 0 C1.98 0 3.96 0 6 0 C5.29068447 4.36982469 3.84917729 8.37028837 2.27734375 12.48828125 C2.01240616 13.19147995 1.74746857 13.89467865 1.47450256 14.6191864 C0.6324451 16.85167447 -0.21494143 19.08209538 -1.0625 21.3125 C-1.6364214 22.8312466 -2.20999294 24.35012545 -2.78320312 25.86914062 C-4.18475585 29.58097067 -5.59108953 33.29095685 -7 37 C-7.33 36.34 -7.66 35.68 -8 35 C-9.65 35.66 -11.3 36.32 -13 37 C-12.13552412 33.00459852 -10.68240915 29.21932718 -9.27734375 25.390625 C-9.01240616 24.66381531 -8.74746857 23.93700562 -8.47450256 23.18817139 C-7.63072236 20.87475355 -6.78415086 18.5623686 -5.9375 16.25 C-5.3637477 14.6784528 -4.79017789 13.10683895 -4.21679688 11.53515625 C-2.81331167 7.68932868 -1.40732279 3.84442484 0 0 Z " fill="#413F3F" transform="translate(886,262)"/>
<path d="M0 0 C1.65 0 3.3 0 5 0 C5 3.90313457 4.87611052 6.00013396 2.2578125 8.98828125 C-3.57005821 14.14370534 -7.52917396 15.30679411 -15.2734375 15.21484375 C-20.34875157 14.81492645 -23.0594071 13.06435513 -26.375 9.3125 C-26.91125 8.549375 -27.4475 7.78625 -28 7 C-27.01 5.02 -26.02 3.04 -25 1 C-24.4225 1.763125 -23.845 2.52625 -23.25 3.3125 C-20.63687865 6.43372828 -18.68139276 8.67192336 -14.59765625 9.46875 C-8.89295042 9.54367976 -8.89295042 9.54367976 -4 6.75 C-2.38300543 4.52663247 -1.03411318 2.5382778 0 0 Z " fill="#3B393A" transform="translate(736,290)"/>
<path d="M0 0 C0.99 0 1.98 0 3 0 C3.8327936 4.35128453 4.12856996 8.4668357 4.1328125 12.89453125 C4.13410156 14.17908203 4.13539062 15.46363281 4.13671875 16.78710938 C4.13462402 17.44735107 4.1325293 18.10759277 4.13037109 18.7878418 C4.12496915 20.82413014 4.13035919 22.8602024 4.13671875 24.89648438 C4.13542969 26.17458984 4.13414063 27.45269531 4.1328125 28.76953125 C4.13168457 29.94104736 4.13055664 31.11256348 4.12939453 32.31958008 C4 35 4 35 3 36 C1.33382885 36.04063832 -0.33388095 36.042721 -2 36 C-2.04944066 31.35524041 -2.08573863 26.71063404 -2.10986328 22.06567383 C-2.11992041 20.48556856 -2.13356785 18.9054819 -2.15087891 17.32543945 C-2.17514022 15.0541525 -2.18648582 12.78311164 -2.1953125 10.51171875 C-2.20563507 9.80536789 -2.21595764 9.09901703 -2.22659302 8.3712616 C-2.22743775 4.67802208 -2.10720523 3.16080784 0 0 Z " fill="#3E3C3D" transform="translate(1043,268)"/>
<path d="M0 0 C1.43859375 -0.02126953 1.43859375 -0.02126953 2.90625 -0.04296875 C5.5 0.1875 5.5 0.1875 8.5 2.1875 C7.51 2.8475 6.52 3.5075 5.5 4.1875 C5.83 4.8475 6.16 5.5075 6.5 6.1875 C5.39591797 6.11789062 5.39591797 6.11789062 4.26953125 6.046875 C-1.80614776 5.79522801 -1.80614776 5.79522801 -7.5 7.625 C-9.87967753 10.67396183 -10.73039426 13.43368859 -11.62890625 17.1640625 C-12.75461949 19.77894796 -14.01138776 19.97548126 -16.5 21.1875 C-17.31870185 24.74956661 -17.31870185 24.74956661 -17.5 28.1875 C-17.83 28.1875 -18.16 28.1875 -18.5 28.1875 C-19.0280369 19.65090342 -18.96026106 11.24168616 -13.00390625 4.4921875 C-8.83048032 0.84954641 -5.39083854 0.03622875 0 0 Z " fill="#474445" transform="translate(1183.5,260.8125)"/>
<path d="M0 0 C2.375 1.625 2.375 1.625 3.375 3.625 C2.715 3.625 2.055 3.625 1.375 3.625 C1.705 4.615 2.035 5.605 2.375 6.625 C1.715 7.285 1.055 7.945 0.375 8.625 C-0.264375 7.965 -0.90375 7.305 -1.5625 6.625 C-5.65112251 3.95487918 -8.86079906 3.87547833 -13.625 4.625 C-16.60484167 5.95670309 -16.60484167 5.95670309 -18.625 7.625 C-18.625 6.965 -18.625 6.305 -18.625 5.625 C-20.275 5.955 -21.925 6.285 -23.625 6.625 C-22.22915208 3.25170085 -20.70134389 1.58267338 -17.625 -0.375 C-11.84070289 -2.30309904 -5.67573901 -2.15286652 0 0 Z " fill="#434242" transform="translate(959.625,262.375)"/>
<path d="M0 0 C3.19871608 1.73872119 4.58701025 2.69853074 5.7578125 6.2109375 C4.7678125 6.7059375 4.7678125 6.7059375 3.7578125 7.2109375 C2.7678125 8.6959375 2.7678125 8.6959375 1.7578125 10.2109375 C1.1596875 9.3859375 0.5615625 8.5609375 -0.0546875 7.7109375 C-2.07833706 5.62257821 -3.08191569 5.23007107 -6.0234375 4.87890625 C-8.77782189 4.89665357 -11.49661719 4.99456156 -14.2421875 5.2109375 C-14.9021875 3.5609375 -15.5621875 1.9109375 -16.2421875 0.2109375 C-11.10194555 -1.50247648 -5.16401891 -1.81730282 0 0 Z " fill="#423F40" transform="translate(489.2421875,261.7890625)"/>
<path d="M0 0 C0.99 0 1.98 0 3 0 C2.58634898 5.27405053 1.71026864 8.17729898 -2 12 C-5.21451269 13.60725635 -8.43612536 13.05748185 -12 13 C-12.33 11.35 -12.66 9.7 -13 8 C-11.96875 7.979375 -10.9375 7.95875 -9.875 7.9375 C-5.20659255 6.80804658 -4.06016472 5.26657828 -1.359375 1.49609375 C-0.91078125 1.00238281 -0.4621875 0.50867188 0 0 Z " fill="#424141" transform="translate(1104,308)"/>
<path d="M0 0 C1.65 0 3.3 0 5 0 C4.75331325 4.19367478 4.44696258 6.4537124 1.75 9.75 C-0.76533052 11.80799769 -3.07730368 13.57814774 -6 15 C-6.66 14.67 -7.32 14.34 -8 14 C-7.58101826 9.11187968 -5.4649477 7.29592586 -2 4 C-0.70480005 1.83379456 -0.70480005 1.83379456 0 0 Z " fill="#4C4B4C" transform="translate(1196,290)"/>
<path d="M0 0 C1.65 0 3.3 0 5 0 C5 3.93879717 4.86886156 6.01083454 2.22265625 9.0234375 C-3.39375 14 -3.39375 14 -6 14 C-6.8125 11.8125 -6.8125 11.8125 -7 9 C-4.6875 6.4375 -4.6875 6.4375 -2 4 C-0.70480005 1.83379456 -0.70480005 1.83379456 0 0 Z " fill="#484647" transform="translate(736,290)"/>
<path d="M0 0 C1.093125 0.0825 2.18625 0.165 3.3125 0.25 C1.33949112 3.26870358 -0.66526088 6.26407656 -2.6875 9.25 C-3.368125 10.260625 -4.04875 11.27125 -4.75 12.3125 C-6.6875 14.25 -6.6875 14.25 -9.30859375 14.37109375 C-10.48615234 14.31115234 -10.48615234 14.31115234 -11.6875 14.25 C-10.92182134 12.66416752 -10.14972035 11.08143506 -9.375 9.5 C-8.94574219 8.61828125 -8.51648438 7.7365625 -8.07421875 6.828125 C-4.56809701 0.30970149 -4.56809701 0.30970149 0 0 Z " fill="#474546" transform="translate(956.6875,242.75)"/>
<path d="M0 0 C0.5775 0.7425 1.155 1.485 1.75 2.25 C3.72253526 4.66087643 5.76044282 6.84042701 8 9 C6.35 9 4.7 9 3 9 C3.33 9.99 3.66 10.98 4 12 C0.17053157 10.54744301 -1.12050295 8.57104439 -3 5 C-2.01 3.35 -1.02 1.7 0 0 Z " fill="#474546" transform="translate(711,291)"/>
<path d="M0 0 C1.23556641 0.01740234 1.23556641 0.01740234 2.49609375 0.03515625 C3.32238281 0.04417969 4.14867187 0.05320313 5 0.0625 C5.63808594 0.07410156 6.27617187 0.08570313 6.93359375 0.09765625 C6.93359375 0.75765625 6.93359375 1.41765625 6.93359375 2.09765625 C5.94359375 2.09765625 4.95359375 2.09765625 3.93359375 2.09765625 C3.93359375 2.75765625 3.93359375 3.41765625 3.93359375 4.09765625 C2.94359375 4.09765625 1.95359375 4.09765625 0.93359375 4.09765625 C0.93359375 4.75765625 0.93359375 5.41765625 0.93359375 6.09765625 C-1.63853759 7.71714636 -2.74309784 8.14174376 -5.81640625 7.72265625 C-6.55890625 7.51640625 -7.30140625 7.31015625 -8.06640625 7.09765625 C-8.06640625 6.76765625 -8.06640625 6.43765625 -8.06640625 6.09765625 C-6.41640625 6.09765625 -4.76640625 6.09765625 -3.06640625 6.09765625 C-3.06640625 5.43765625 -3.06640625 4.77765625 -3.06640625 4.09765625 C-2.40640625 4.09765625 -1.74640625 4.09765625 -1.06640625 4.09765625 C-1.06640625 3.43765625 -1.06640625 2.77765625 -1.06640625 2.09765625 C-1.72640625 1.76765625 -2.38640625 1.43765625 -3.06640625 1.09765625 C-2.06640625 0.09765625 -2.06640625 0.09765625 0 0 Z " fill="#F1AB56" transform="translate(252.06640625,235.90234375)"/>
<path d="M0 0 C-0.33 2.31 -0.66 4.62 -1 7 C-2.98 7 -4.96 7 -7 7 C-7.33 5.35 -7.66 3.7 -8 2 C-5.09399739 0.74335022 -3.20395416 0 0 0 Z " fill="#373334" transform="translate(878,297)"/>
<path d="M0 0 C-2.64960955 3.63094642 -5.01824456 5.89851796 -9 8 C-9.66 6.35 -10.32 4.7 -11 3 C-8.21756596 -1.17365106 -4.53441502 -0.22300402 0 0 Z " fill="#444343" transform="translate(1279,262)"/>
<path d="M0 0 C-0.98041419 2.45103548 -1.6513818 3.76758786 -3.875 5.25 C-7.22480845 6.43228534 -9.6821222 6.10595927 -13 5 C-5.32421875 -1.65234375 -5.32421875 -1.65234375 0 0 Z " fill="#3F3D3E" transform="translate(639,262)"/>
<path d="M0 0 C1.0326802 2.78823655 1.04509293 3.8677274 0.0625 6.75 C-0.288125 7.4925 -0.63875 8.235 -1 9 C-1.33 8.34 -1.66 7.68 -2 7 C-3.65 7.66 -5.3 8.32 -7 9 C-6.42415568 6.61435923 -5.77772405 4.33317216 -5 2 C-3 1.375 -3 1.375 -1 1 C-0.67 0.67 -0.34 0.34 0 0 Z " fill="#474546" transform="translate(880,290)"/>
<path d="M0 0 C-0.66 1.32 -1.32 2.64 -2 4 C-5.375 4.125 -5.375 4.125 -9 4 C-9.66 3.34 -10.32 2.68 -11 2 C-7.75267347 -1.24732653 -4.25451414 -1.41817138 0 0 Z " fill="#272425" transform="translate(1190,301)"/>
<path d="M0 0 C2.6855594 2.6855594 3.06049974 5.37621328 4 9 C3.34 9 2.68 9 2 9 C2 8.01 2 7.02 2 6 C1.34 6 0.68 6 0 6 C-0.33 6.99 -0.66 7.98 -1 9 C-1.99 8.67 -2.98 8.34 -4 8 C-4 4 -4 4 -2 1.75 C-1.01 0.88375 -1.01 0.88375 0 0 Z " fill="#F4A341" transform="translate(284,114)"/>
<path d="M0 0 C3.96 0.33 7.92 0.66 12 1 C12 1.33 12 1.66 12 2 C9.69 2.66 7.38 3.32 5 4 C5.33 4.66 5.66 5.32 6 6 C3.03 5.505 3.03 5.505 0 5 C-0.33 4.01 -0.66 3.02 -1 2 C-0.67 1.34 -0.34 0.68 0 0 Z " fill="#535051" transform="translate(1175,299)"/>
<path d="M0 0 C0.94875 0.350625 1.8975 0.70125 2.875 1.0625 C2.215 2.7125 1.555 4.3625 0.875 6.0625 C-1.5625 5.3125 -1.5625 5.3125 -4.125 4.0625 C-4.9375 1.9375 -4.9375 1.9375 -5.125 0.0625 C-3.125 -0.9375 -3.125 -0.9375 0 0 Z " fill="#3B393A" transform="translate(474.125,297.9375)"/>
<path d="M0 0 C4.39750672 0.50740462 6.86948922 3.08293314 10 6 C10 6.66 10 7.32 10 8 C9.01 8 8.02 8 7 8 C7 7.34 7 6.68 7 6 C5.35 6 3.7 6 2 6 C2 5.34 2 4.68 2 4 C1.34 4 0.68 4 0 4 C0 2.68 0 1.36 0 0 Z " fill="#F4A74E" transform="translate(262,88)"/>
<path d="M0 0 C0.66 0 1.32 0 2 0 C1.57910004 5.60461531 1.08386889 10.72086547 -1 16 C-1.33 16 -1.66 16 -2 16 C-2 13.36 -2 10.72 -2 8 C-1.34 8 -0.68 8 0 8 C0 5.36 0 2.72 0 0 Z " fill="#F1B168" transform="translate(290,180)"/>
<path d="M0 0 C0.33 1.65 0.66 3.3 1 5 C-0.98 5.99 -0.98 5.99 -3 7 C-3.33 6.01 -3.66 5.02 -4 4 C-4.66 3.67 -5.32 3.34 -6 3 C-3.375 0 -3.375 0 0 0 Z " fill="#363435" transform="translate(474,263)"/>
<path d="M0 0 C-0.61277612 2.96175123 -1.25372522 4.38058783 -3 7 C-5.625 7.1875 -5.625 7.1875 -8 7 C-6.56389554 2.69168661 -4.72692072 0 0 0 Z " fill="#3F3E3F" transform="translate(953,250)"/>
<path d="M0 0 C0.99 0.66 1.98 1.32 3 2 C3 4 3 4 1.625 5.4375 C1.08875 5.953125 0.5525 6.46875 0 7 C-0.99 8.485 -0.99 8.485 -2 10 C-2.66 7.69 -3.32 5.38 -4 3 C-2.68 2.67 -1.36 2.34 0 2 C0 1.34 0 0.68 0 0 Z " fill="#4F4C4D" transform="translate(1042,264)"/>
<path d="M0 0 C1.2065625 0.0309375 1.2065625 0.0309375 2.4375 0.0625 C1.7775 2.0425 1.1175 4.0225 0.4375 6.0625 C-0.2225 6.0625 -0.8825 6.0625 -1.5625 6.0625 C-1.5625 6.7225 -1.5625 7.3825 -1.5625 8.0625 C-2.2225 8.0625 -2.8825 8.0625 -3.5625 8.0625 C-2.9025 6.0825 -2.2425 4.1025 -1.5625 2.0625 C-2.2225 1.7325 -2.8825 1.4025 -3.5625 1.0625 C-2.5625 0.0625 -2.5625 0.0625 0 0 Z " fill="#F3A751" transform="translate(275.5625,215.9375)"/>
<path d="M0 0 C0.99 0 1.98 0 3 0 C1.125 5.75 1.125 5.75 0 8 C-0.66 8 -1.32 8 -2 8 C-2 6.68 -2 5.36 -2 4 C-2.66 3.67 -3.32 3.34 -4 3 C-2.68 2.67 -1.36 2.34 0 2 C0 1.34 0 0.68 0 0 Z " fill="#F4A248" transform="translate(280,208)"/>
<path d="M0 0 C1.65 0 3.3 0 5 0 C5 3.3 5 6.6 5 10 C3 6 3 6 3 4 C2.01 3.67 1.02 3.34 0 3 C0 2.01 0 1.02 0 0 Z " fill="#F9B366" transform="translate(82,70)"/>
<path d="M0 0 C1.98 0 3.96 0 6 0 C5.67 1.65 5.34 3.3 5 5 C3.68 5 2.36 5 1 5 C0.67 3.35 0.34 1.7 0 0 Z " fill="#383737" transform="translate(1088,262)"/>
<path d="M0 0 C0.99 0 1.98 0 3 0 C3.33 1.32 3.66 2.64 4 4 C1.69 4.33 -0.62 4.66 -3 5 C-1.125 1.125 -1.125 1.125 0 0 Z " fill="#211D1E" transform="translate(639,261)"/>
<path d="M0 0 C1.65 0.33 3.3 0.66 5 1 C5 1.99 5 2.98 5 4 C3.02 4.66 1.04 5.32 -1 6 C-0.67 4.02 -0.34 2.04 0 0 Z " fill="#474445" transform="translate(1189,299)"/>
<path d="M0 0 C0.99 0 1.98 0 3 0 C3 0.66 3 1.32 3 2 C3.99 2 4.98 2 6 2 C6 2.66 6 3.32 6 4 C3.69 4 1.38 4 -1 4 C-0.67 2.68 -0.34 1.36 0 0 Z " fill="#F3A039" transform="translate(239,242)"/>
<path d="M0 0 C0.66 0.33 1.32 0.66 2 1 C-0.31 3.64 -2.62 6.28 -5 9 C-5 4.61031544 -2.87194899 3.23094261 0 0 Z " fill="#636061" transform="translate(713,263)"/>
<path d="M0 0 C1.32 0 2.64 0 4 0 C4.33 1.32 4.66 2.64 5 4 C3.35 3.67 1.7 3.34 0 3 C0 2.01 0 1.02 0 0 Z " fill="#211F20" transform="translate(1189,263)"/>
<path d="M0 0 C0.66 0.33 1.32 0.66 2 1 C0.8125 3.5 0.8125 3.5 -1 6 C-3.6875 6.3125 -3.6875 6.3125 -6 6 C-4 4 -2 2 0 0 Z " fill="#535152" transform="translate(632,262)"/>
<path d="M0 0 C0 1.98 0 3.96 0 6 C-0.99 6.495 -0.99 6.495 -2 7 C-2.66 5.68 -3.32 4.36 -4 3 C-1.125 0 -1.125 0 0 0 Z " fill="#2B292A" transform="translate(1112,293)"/>
<path d="M0 0 C1.65 0 3.3 0 5 0 C5.33 0.66 5.66 1.32 6 2 C5.01 2 4.02 2 3 2 C3 2.66 3 3.32 3 4 C2.01 4 1.02 4 0 4 C0 2.68 0 1.36 0 0 Z " fill="#EFAE5B" transform="translate(234,72)"/>
</svg>
